<svg xmlns="http://www.w3.org/2000/svg" xmlns:xlink="http://www.w3.org/1999/xlink" width="500" zoomAndPan="magnify" viewBox="0 0 375 374.999991" height="500" preserveAspectRatio="xMidYMid meet" version="1.0"><defs><g/><clipPath id="233ee336d4"><path d="M 187.5 0 C 83.945312 0 0 83.945312 0 187.5 C 0 291.054688 83.945312 375 187.5 375 C 291.054688 375 375 291.054688 375 187.5 C 375 83.945312 291.054688 0 187.5 0 Z M 187.5 0 " clip-rule="nonzero"/></clipPath></defs><g clip-path="url(#233ee336d4)"><rect x="-37.5" width="450" fill="#efefef" y="-37.499999" height="449.999989" fill-opacity="1"/></g><g fill="#111414" fill-opacity="1"><g transform="translate(87.410155, 252.749983)"><g><path d="M 41.328125 1.75 C 34.796875 1.75 28.929688 0.835938 23.734375 -0.984375 C 18.535156 -2.816406 14.148438 -5.3125 10.578125 -8.46875 C 7.015625 -11.625 4.347656 -15.21875 2.578125 -19.25 L 13.03125 -32.28125 L 15.109375 -32.28125 C 17.484375 -27.03125 20.851562 -22.878906 25.21875 -19.828125 C 29.59375 -16.785156 34.742188 -15.265625 40.671875 -15.265625 C 47.585938 -15.265625 52.675781 -17.144531 55.9375 -20.90625 C 59.195312 -24.675781 60.828125 -30.988281 60.828125 -39.84375 L 60.828125 -121.328125 L 79.84375 -121.328125 L 79.84375 -39.5 C 79.84375 -25.34375 76.660156 -14.925781 70.296875 -8.25 C 63.929688 -1.582031 54.273438 1.75 41.328125 1.75 Z M 41.328125 1.75 "/></g></g></g><g fill="#111414" fill-opacity="1"><g transform="translate(183.432533, 252.749983)"><g><path d="M 53.453125 1.75 C 45.421875 1.75 38.25 0.710938 31.9375 -1.359375 C 25.632812 -3.441406 20.378906 -6.171875 16.171875 -9.546875 C 11.972656 -12.921875 8.796875 -16.628906 6.640625 -20.671875 L 17.09375 -33.453125 L 19.171875 -33.453125 C 22.878906 -27.640625 27.582031 -23.128906 33.28125 -19.921875 C 38.976562 -16.710938 45.703125 -15.109375 53.453125 -15.109375 C 61.191406 -15.109375 67 -16.738281 70.875 -20 C 74.75 -23.257812 76.6875 -27.769531 76.6875 -33.53125 C 76.6875 -36.957031 76.050781 -39.847656 74.78125 -42.203125 C 73.507812 -44.554688 71.421875 -46.578125 68.515625 -48.265625 C 65.609375 -49.953125 61.664062 -51.40625 56.6875 -52.625 L 41.828125 -56.109375 C 31.097656 -58.648438 23.144531 -62.753906 17.96875 -68.421875 C 12.789062 -74.097656 10.203125 -81.363281 10.203125 -90.21875 C 10.203125 -96.6875 11.832031 -102.394531 15.09375 -107.34375 C 18.363281 -112.300781 23.140625 -116.160156 29.421875 -118.921875 C 35.703125 -121.691406 43.1875 -123.078125 51.875 -123.078125 C 61.113281 -123.078125 68.96875 -121.832031 75.4375 -119.34375 C 81.914062 -116.851562 87.226562 -113.035156 91.375 -107.890625 L 82 -95.03125 L 79.921875 -95.03125 C 76.429688 -98.957031 72.390625 -101.875 67.796875 -103.78125 C 63.210938 -105.6875 57.90625 -106.640625 51.875 -106.640625 C 44.34375 -106.640625 38.65625 -105.242188 34.8125 -102.453125 C 30.96875 -99.660156 29.046875 -95.800781 29.046875 -90.875 C 29.046875 -86.226562 30.425781 -82.535156 33.1875 -79.796875 C 35.957031 -77.054688 40.691406 -74.910156 47.390625 -73.359375 L 62.65625 -69.96875 C 74.445312 -67.3125 82.984375 -63.0625 88.265625 -57.21875 C 93.546875 -51.382812 96.1875 -43.847656 96.1875 -34.609375 C 96.1875 -27.410156 94.59375 -21.070312 91.40625 -15.59375 C 88.226562 -10.125 83.441406 -5.863281 77.046875 -2.8125 C 70.660156 0.226562 62.796875 1.75 53.453125 1.75 Z M 53.453125 1.75 "/></g></g></g></svg>